<mxfile modified="2024-02-05T18:14:14.884Z" host="app.diagrams.net" agent="Mozilla/5.0 (Windows NT 10.0; Win64; x64) AppleWebKit/537.36 (KHTML, like Gecko) Chrome/121.0.0.0 Safari/537.36" etag="KXuiMCFVfk4RC04E1hhf" version="23.1.1" type="github">
  <diagram id="Ht1M8jgEwFfnCIfOTk4-" name="Page-1">
    <mxGraphModel dx="2404" dy="1441" grid="1" gridSize="10" guides="1" tooltips="1" connect="1" arrows="1" fold="1" page="1" pageScale="1" pageWidth="1169" pageHeight="827" math="0" shadow="0">
      <root>
        <mxCell id="0" />
        <mxCell id="1" parent="0" />
        <mxCell id="SCVMTBWpLvtzJIhz15lM-2" value="&lt;span&gt;SQS&lt;/span&gt;" style="text;html=1;resizable=0;points=[];autosize=1;align=left;verticalAlign=top;spacingTop=-4;fontSize=14;fontStyle=1" parent="1" vertex="1">
          <mxGeometry x="535" y="480" width="50" height="20" as="geometry" />
        </mxCell>
        <mxCell id="PvRw4KbO7DKKGOO_xfBm-1" value="" style="outlineConnect=0;dashed=0;verticalLabelPosition=bottom;verticalAlign=top;align=center;html=1;shape=mxgraph.aws3.ses;fillColor=#D9A741;gradientColor=none;" vertex="1" parent="1">
          <mxGeometry x="726.5" y="-346" width="79.5" height="93" as="geometry" />
        </mxCell>
        <mxCell id="PvRw4KbO7DKKGOO_xfBm-4" value="" style="outlineConnect=0;dashed=0;verticalLabelPosition=bottom;verticalAlign=top;align=center;html=1;shape=mxgraph.aws3.ec2;fillColor=#F58534;gradientColor=none;" vertex="1" parent="1">
          <mxGeometry x="629.5" y="-346" width="76.5" height="93" as="geometry" />
        </mxCell>
        <mxCell id="PvRw4KbO7DKKGOO_xfBm-66" style="edgeStyle=orthogonalEdgeStyle;rounded=0;orthogonalLoop=1;jettySize=auto;html=1;" edge="1" parent="1" source="PvRw4KbO7DKKGOO_xfBm-5">
          <mxGeometry relative="1" as="geometry">
            <mxPoint x="240" y="440" as="targetPoint" />
          </mxGeometry>
        </mxCell>
        <mxCell id="PvRw4KbO7DKKGOO_xfBm-5" value="" style="outlineConnect=0;dashed=0;verticalLabelPosition=bottom;verticalAlign=top;align=center;html=1;shape=mxgraph.aws3.rds;fillColor=#2E73B8;gradientColor=none;" vertex="1" parent="1">
          <mxGeometry x="529" y="560" width="72" height="81" as="geometry" />
        </mxCell>
        <mxCell id="PvRw4KbO7DKKGOO_xfBm-8" value="" style="outlineConnect=0;dashed=0;verticalLabelPosition=bottom;verticalAlign=top;align=center;html=1;shape=mxgraph.aws3.iam;fillColor=#759C3E;gradientColor=none;" vertex="1" parent="1">
          <mxGeometry x="310" y="-346" width="42" height="81" as="geometry" />
        </mxCell>
        <mxCell id="PvRw4KbO7DKKGOO_xfBm-37" style="edgeStyle=orthogonalEdgeStyle;rounded=0;orthogonalLoop=1;jettySize=auto;html=1;" edge="1" parent="1" source="PvRw4KbO7DKKGOO_xfBm-9">
          <mxGeometry relative="1" as="geometry">
            <mxPoint x="830" y="840" as="targetPoint" />
          </mxGeometry>
        </mxCell>
        <mxCell id="PvRw4KbO7DKKGOO_xfBm-9" value="" style="outlineConnect=0;dashed=0;verticalLabelPosition=bottom;verticalAlign=top;align=center;html=1;shape=mxgraph.aws3.cloudwatch;fillColor=#759C3E;gradientColor=none;" vertex="1" parent="1">
          <mxGeometry x="527.25" y="750" width="82.5" height="93" as="geometry" />
        </mxCell>
        <mxCell id="PvRw4KbO7DKKGOO_xfBm-10" value="" style="rounded=1;arcSize=10;dashed=1;strokeColor=#ff0000;fillColor=none;gradientColor=none;dashPattern=8 4;strokeWidth=2;" vertex="1" parent="1">
          <mxGeometry x="350" y="200" width="435" height="310" as="geometry" />
        </mxCell>
        <mxCell id="PvRw4KbO7DKKGOO_xfBm-11" value="&lt;span&gt;RDS&lt;/span&gt;" style="text;html=1;resizable=0;points=[];autosize=1;align=left;verticalAlign=top;spacingTop=-4;fontSize=14;fontStyle=1" vertex="1" parent="1">
          <mxGeometry x="546" y="651" width="50" height="20" as="geometry" />
        </mxCell>
        <mxCell id="PvRw4KbO7DKKGOO_xfBm-12" value="&lt;span&gt;EC2&lt;/span&gt;" style="text;html=1;resizable=0;points=[];autosize=1;align=left;verticalAlign=top;spacingTop=-4;fontSize=14;fontStyle=1" vertex="1" parent="1">
          <mxGeometry x="653.25" y="-253" width="50" height="20" as="geometry" />
        </mxCell>
        <mxCell id="PvRw4KbO7DKKGOO_xfBm-13" value="&lt;span&gt;IAM&lt;/span&gt;" style="text;html=1;resizable=0;points=[];autosize=1;align=left;verticalAlign=top;spacingTop=-4;fontSize=14;fontStyle=1" vertex="1" parent="1">
          <mxGeometry x="310" y="-245" width="50" height="20" as="geometry" />
        </mxCell>
        <mxCell id="PvRw4KbO7DKKGOO_xfBm-14" value="&lt;span&gt;CloudWatch&lt;/span&gt;" style="text;html=1;resizable=0;points=[];autosize=1;align=left;verticalAlign=top;spacingTop=-4;fontSize=14;fontStyle=1" vertex="1" parent="1">
          <mxGeometry x="528.75" y="859" width="100" height="20" as="geometry" />
        </mxCell>
        <mxCell id="PvRw4KbO7DKKGOO_xfBm-16" value="" style="outlineConnect=0;dashed=0;verticalLabelPosition=bottom;verticalAlign=top;align=center;html=1;shape=mxgraph.aws3.sqs;fillColor=#D9A741;gradientColor=none;" vertex="1" parent="1">
          <mxGeometry x="513.25" y="370" width="76.5" height="93" as="geometry" />
        </mxCell>
        <mxCell id="PvRw4KbO7DKKGOO_xfBm-17" value="&lt;span&gt;SES&lt;/span&gt;" style="text;html=1;resizable=0;points=[];autosize=1;align=left;verticalAlign=top;spacingTop=-4;fontSize=14;fontStyle=1" vertex="1" parent="1">
          <mxGeometry x="756.25" y="-253" width="50" height="20" as="geometry" />
        </mxCell>
        <mxCell id="PvRw4KbO7DKKGOO_xfBm-18" value="&lt;span&gt;SG&lt;/span&gt;" style="text;html=1;resizable=0;points=[];autosize=1;align=left;verticalAlign=top;spacingTop=-4;fontSize=14;fontStyle=1" vertex="1" parent="1">
          <mxGeometry x="531.5" y="170" width="40" height="20" as="geometry" />
        </mxCell>
        <mxCell id="PvRw4KbO7DKKGOO_xfBm-19" value="" style="outlineConnect=0;dashed=0;verticalLabelPosition=bottom;verticalAlign=top;align=center;html=1;shape=mxgraph.aws3.lambda;fillColor=#F58534;gradientColor=none;" vertex="1" parent="1">
          <mxGeometry x="850" y="-346" width="76.5" height="93" as="geometry" />
        </mxCell>
        <mxCell id="PvRw4KbO7DKKGOO_xfBm-20" value="&lt;span&gt;Lambda&lt;/span&gt;" style="text;html=1;resizable=0;points=[];autosize=1;align=left;verticalAlign=top;spacingTop=-4;fontSize=14;fontStyle=1" vertex="1" parent="1">
          <mxGeometry x="860" y="-242.5" width="80" height="20" as="geometry" />
        </mxCell>
        <mxCell id="PvRw4KbO7DKKGOO_xfBm-47" style="edgeStyle=orthogonalEdgeStyle;rounded=0;orthogonalLoop=1;jettySize=auto;html=1;" edge="1" parent="1" source="PvRw4KbO7DKKGOO_xfBm-21" target="PvRw4KbO7DKKGOO_xfBm-35">
          <mxGeometry relative="1" as="geometry" />
        </mxCell>
        <mxCell id="PvRw4KbO7DKKGOO_xfBm-21" value="" style="outlineConnect=0;dashed=0;verticalLabelPosition=bottom;verticalAlign=top;align=center;html=1;shape=mxgraph.aws3.s3;fillColor=#E05243;gradientColor=none;" vertex="1" parent="1">
          <mxGeometry x="521.75" y="210" width="76.5" height="93" as="geometry" />
        </mxCell>
        <mxCell id="PvRw4KbO7DKKGOO_xfBm-22" value="&lt;span&gt;S3&lt;/span&gt;" style="text;html=1;resizable=0;points=[];autosize=1;align=left;verticalAlign=top;spacingTop=-4;fontSize=14;fontStyle=1" vertex="1" parent="1">
          <mxGeometry x="551.75" y="304.5" width="40" height="20" as="geometry" />
        </mxCell>
        <mxCell id="PvRw4KbO7DKKGOO_xfBm-52" style="edgeStyle=orthogonalEdgeStyle;rounded=0;orthogonalLoop=1;jettySize=auto;html=1;" edge="1" parent="1" source="PvRw4KbO7DKKGOO_xfBm-26">
          <mxGeometry relative="1" as="geometry">
            <mxPoint x="1240" y="349.75" as="targetPoint" />
          </mxGeometry>
        </mxCell>
        <mxCell id="PvRw4KbO7DKKGOO_xfBm-26" value="" style="outlineConnect=0;dashed=0;verticalLabelPosition=bottom;verticalAlign=top;align=center;html=1;shape=mxgraph.aws3.sns;fillColor=#D9A741;gradientColor=none;" vertex="1" parent="1">
          <mxGeometry x="1023" y="311.5" width="76.5" height="76.5" as="geometry" />
        </mxCell>
        <mxCell id="PvRw4KbO7DKKGOO_xfBm-71" style="edgeStyle=orthogonalEdgeStyle;rounded=0;orthogonalLoop=1;jettySize=auto;html=1;exitX=0.456;exitY=1.078;exitDx=0;exitDy=0;exitPerimeter=0;" edge="1" parent="1" source="PvRw4KbO7DKKGOO_xfBm-27">
          <mxGeometry relative="1" as="geometry">
            <mxPoint x="600" y="790" as="targetPoint" />
            <mxPoint x="1069.294117647059" y="440.5" as="sourcePoint" />
            <Array as="points">
              <mxPoint x="1069" y="414" />
              <mxPoint x="1069" y="478" />
              <mxPoint x="1020" y="478" />
              <mxPoint x="1020" y="790" />
            </Array>
          </mxGeometry>
        </mxCell>
        <mxCell id="PvRw4KbO7DKKGOO_xfBm-27" value="&lt;span&gt;SNS&lt;/span&gt;" style="text;html=1;resizable=0;points=[];autosize=1;align=left;verticalAlign=top;spacingTop=-4;fontSize=14;fontStyle=1" vertex="1" parent="1">
          <mxGeometry x="1044.25" y="392.5" width="50" height="20" as="geometry" />
        </mxCell>
        <mxCell id="PvRw4KbO7DKKGOO_xfBm-46" style="edgeStyle=orthogonalEdgeStyle;rounded=0;orthogonalLoop=1;jettySize=auto;html=1;" edge="1" parent="1" source="PvRw4KbO7DKKGOO_xfBm-28">
          <mxGeometry relative="1" as="geometry">
            <mxPoint x="970" y="360" as="targetPoint" />
          </mxGeometry>
        </mxCell>
        <mxCell id="PvRw4KbO7DKKGOO_xfBm-28" value="" style="sketch=0;points=[[0,0,0],[0.25,0,0],[0.5,0,0],[0.75,0,0],[1,0,0],[0,1,0],[0.25,1,0],[0.5,1,0],[0.75,1,0],[1,1,0],[0,0.25,0],[0,0.5,0],[0,0.75,0],[1,0.25,0],[1,0.5,0],[1,0.75,0]];outlineConnect=0;fontColor=#232F3E;fillColor=#E7157B;strokeColor=#ffffff;dashed=0;verticalLabelPosition=bottom;verticalAlign=top;align=center;html=1;fontSize=12;fontStyle=0;aspect=fixed;shape=mxgraph.aws4.resourceIcon;resIcon=mxgraph.aws4.eventbridge;" vertex="1" parent="1">
          <mxGeometry x="850" y="803" width="78" height="78" as="geometry" />
        </mxCell>
        <mxCell id="PvRw4KbO7DKKGOO_xfBm-29" value="&lt;span&gt;Event Bridge&lt;/span&gt;" style="text;html=1;resizable=0;points=[];autosize=1;align=left;verticalAlign=top;spacingTop=-4;fontSize=14;fontStyle=1" vertex="1" parent="1">
          <mxGeometry x="845" y="884" width="110" height="20" as="geometry" />
        </mxCell>
        <mxCell id="PvRw4KbO7DKKGOO_xfBm-51" style="edgeStyle=orthogonalEdgeStyle;rounded=0;orthogonalLoop=1;jettySize=auto;html=1;" edge="1" parent="1" source="PvRw4KbO7DKKGOO_xfBm-31">
          <mxGeometry relative="1" as="geometry">
            <mxPoint x="190" y="355" as="targetPoint" />
          </mxGeometry>
        </mxCell>
        <mxCell id="PvRw4KbO7DKKGOO_xfBm-31" value="" style="outlineConnect=0;dashed=0;verticalLabelPosition=bottom;verticalAlign=top;align=center;html=1;shape=mxgraph.aws3.sqs;fillColor=#D9A741;gradientColor=none;" vertex="1" parent="1">
          <mxGeometry x="10" y="308.5" width="76.5" height="93" as="geometry" />
        </mxCell>
        <mxCell id="PvRw4KbO7DKKGOO_xfBm-45" style="edgeStyle=orthogonalEdgeStyle;rounded=0;orthogonalLoop=1;jettySize=auto;html=1;" edge="1" parent="1" source="PvRw4KbO7DKKGOO_xfBm-33" target="PvRw4KbO7DKKGOO_xfBm-16">
          <mxGeometry relative="1" as="geometry" />
        </mxCell>
        <mxCell id="PvRw4KbO7DKKGOO_xfBm-33" value="" style="outlineConnect=0;dashed=0;verticalLabelPosition=bottom;verticalAlign=top;align=center;html=1;shape=mxgraph.aws3.lambda;fillColor=#F58534;gradientColor=none;" vertex="1" parent="1">
          <mxGeometry x="200" y="309.25" width="76.5" height="93" as="geometry" />
        </mxCell>
        <mxCell id="PvRw4KbO7DKKGOO_xfBm-67" style="edgeStyle=orthogonalEdgeStyle;rounded=0;orthogonalLoop=1;jettySize=auto;html=1;" edge="1" parent="1" source="PvRw4KbO7DKKGOO_xfBm-34">
          <mxGeometry relative="1" as="geometry">
            <mxPoint x="520" y="790" as="targetPoint" />
            <Array as="points">
              <mxPoint x="220" y="790" />
              <mxPoint x="520" y="790" />
            </Array>
          </mxGeometry>
        </mxCell>
        <mxCell id="PvRw4KbO7DKKGOO_xfBm-34" value="&lt;span&gt;Lambda&lt;/span&gt;" style="text;html=1;resizable=0;points=[];autosize=1;align=left;verticalAlign=top;spacingTop=-4;fontSize=14;fontStyle=1" vertex="1" parent="1">
          <mxGeometry x="210" y="412.75" width="80" height="20" as="geometry" />
        </mxCell>
        <mxCell id="PvRw4KbO7DKKGOO_xfBm-38" style="edgeStyle=orthogonalEdgeStyle;rounded=0;orthogonalLoop=1;jettySize=auto;html=1;" edge="1" parent="1" source="PvRw4KbO7DKKGOO_xfBm-35">
          <mxGeometry relative="1" as="geometry">
            <mxPoint x="1020" y="350" as="targetPoint" />
          </mxGeometry>
        </mxCell>
        <mxCell id="PvRw4KbO7DKKGOO_xfBm-35" value="" style="outlineConnect=0;dashed=0;verticalLabelPosition=bottom;verticalAlign=top;align=center;html=1;shape=mxgraph.aws3.lambda;fillColor=#F58534;gradientColor=none;" vertex="1" parent="1">
          <mxGeometry x="850" y="303" width="76.5" height="93" as="geometry" />
        </mxCell>
        <mxCell id="PvRw4KbO7DKKGOO_xfBm-64" style="edgeStyle=orthogonalEdgeStyle;rounded=0;orthogonalLoop=1;jettySize=auto;html=1;exitX=0.365;exitY=0.963;exitDx=0;exitDy=0;exitPerimeter=0;" edge="1" parent="1">
          <mxGeometry relative="1" as="geometry">
            <mxPoint x="620" y="603" as="targetPoint" />
            <mxPoint x="889.2000000000003" y="421.7600000000002" as="sourcePoint" />
            <Array as="points">
              <mxPoint x="889" y="603" />
            </Array>
          </mxGeometry>
        </mxCell>
        <mxCell id="PvRw4KbO7DKKGOO_xfBm-70" style="edgeStyle=orthogonalEdgeStyle;rounded=0;orthogonalLoop=1;jettySize=auto;html=1;" edge="1" parent="1">
          <mxGeometry relative="1" as="geometry">
            <mxPoint x="600" y="766" as="targetPoint" />
            <mxPoint x="870" y="416" as="sourcePoint" />
            <Array as="points">
              <mxPoint x="869.75" y="415.28" />
              <mxPoint x="869.75" y="706.28" />
              <mxPoint x="629.75" y="706.28" />
              <mxPoint x="629.75" y="766.28" />
            </Array>
          </mxGeometry>
        </mxCell>
        <mxCell id="PvRw4KbO7DKKGOO_xfBm-36" value="&lt;span&gt;Lambda&lt;/span&gt;" style="text;html=1;resizable=0;points=[];autosize=1;align=left;verticalAlign=top;spacingTop=-4;fontSize=14;fontStyle=1" vertex="1" parent="1">
          <mxGeometry x="860" y="399.5" width="80" height="20" as="geometry" />
        </mxCell>
        <mxCell id="PvRw4KbO7DKKGOO_xfBm-42" style="edgeStyle=orthogonalEdgeStyle;rounded=0;orthogonalLoop=1;jettySize=auto;html=1;entryX=0;entryY=0.5;entryDx=0;entryDy=0;entryPerimeter=0;" edge="1" parent="1" source="PvRw4KbO7DKKGOO_xfBm-33" target="PvRw4KbO7DKKGOO_xfBm-21">
          <mxGeometry relative="1" as="geometry">
            <Array as="points">
              <mxPoint x="399" y="330" />
              <mxPoint x="399" y="256" />
            </Array>
          </mxGeometry>
        </mxCell>
        <mxCell id="PvRw4KbO7DKKGOO_xfBm-48" style="edgeStyle=orthogonalEdgeStyle;rounded=0;orthogonalLoop=1;jettySize=auto;html=1;entryX=0;entryY=0.79;entryDx=0;entryDy=0;entryPerimeter=0;" edge="1" parent="1" source="PvRw4KbO7DKKGOO_xfBm-16" target="PvRw4KbO7DKKGOO_xfBm-35">
          <mxGeometry relative="1" as="geometry" />
        </mxCell>
        <mxCell id="PvRw4KbO7DKKGOO_xfBm-53" value="" style="whiteSpace=wrap;html=1;aspect=fixed;" vertex="1" parent="1">
          <mxGeometry x="1250" y="243.13" width="189.62" height="189.62" as="geometry" />
        </mxCell>
        <mxCell id="PvRw4KbO7DKKGOO_xfBm-54" value="&lt;span&gt;Email&amp;nbsp; + Notification&lt;/span&gt;" style="text;html=1;resizable=0;points=[];autosize=1;align=left;verticalAlign=top;spacingTop=-4;fontSize=14;fontStyle=1;strokeColor=default;" vertex="1" parent="1">
          <mxGeometry x="1268" y="327.94" width="160" height="20" as="geometry" />
        </mxCell>
        <mxCell id="PvRw4KbO7DKKGOO_xfBm-68" style="edgeStyle=orthogonalEdgeStyle;rounded=0;orthogonalLoop=1;jettySize=auto;html=1;" edge="1" parent="1" source="PvRw4KbO7DKKGOO_xfBm-58">
          <mxGeometry relative="1" as="geometry">
            <mxPoint x="510" y="810" as="targetPoint" />
            <Array as="points">
              <mxPoint x="50" y="810" />
            </Array>
          </mxGeometry>
        </mxCell>
        <mxCell id="PvRw4KbO7DKKGOO_xfBm-58" value="&lt;span&gt;SQS&lt;/span&gt;" style="text;html=1;resizable=0;points=[];autosize=1;align=left;verticalAlign=top;spacingTop=-4;fontSize=14;fontStyle=1" vertex="1" parent="1">
          <mxGeometry x="26" y="403" width="50" height="20" as="geometry" />
        </mxCell>
        <mxCell id="PvRw4KbO7DKKGOO_xfBm-59" value="&lt;span&gt;Message&lt;/span&gt;" style="text;html=1;resizable=0;points=[];autosize=1;align=left;verticalAlign=top;spacingTop=-4;fontSize=14;fontStyle=1" vertex="1" parent="1">
          <mxGeometry x="-81" y="360" width="80" height="20" as="geometry" />
        </mxCell>
        <mxCell id="PvRw4KbO7DKKGOO_xfBm-60" value="&lt;span&gt;Metadata+Large Object&lt;/span&gt;" style="text;html=1;resizable=0;points=[];autosize=1;align=left;verticalAlign=top;spacingTop=-4;fontSize=14;fontStyle=1" vertex="1" parent="1">
          <mxGeometry x="351" y="230" width="180" height="20" as="geometry" />
        </mxCell>
        <mxCell id="PvRw4KbO7DKKGOO_xfBm-61" value="&lt;span&gt;Metadata+Large Object&lt;/span&gt;" style="text;html=1;resizable=0;points=[];autosize=1;align=left;verticalAlign=top;spacingTop=-4;fontSize=14;fontStyle=1" vertex="1" parent="1">
          <mxGeometry x="601" y="232" width="180" height="20" as="geometry" />
        </mxCell>
        <mxCell id="PvRw4KbO7DKKGOO_xfBm-62" style="edgeStyle=orthogonalEdgeStyle;rounded=0;orthogonalLoop=1;jettySize=auto;html=1;" edge="1" parent="1">
          <mxGeometry relative="1" as="geometry">
            <mxPoint x="11" y="355" as="targetPoint" />
            <mxPoint x="-92" y="355" as="sourcePoint" />
          </mxGeometry>
        </mxCell>
        <mxCell id="PvRw4KbO7DKKGOO_xfBm-63" value="&lt;span&gt;Message sent&lt;/span&gt;" style="text;html=1;resizable=0;points=[];autosize=1;align=left;verticalAlign=top;spacingTop=-4;fontSize=14;fontStyle=1" vertex="1" parent="1">
          <mxGeometry x="97" y="366" width="120" height="20" as="geometry" />
        </mxCell>
        <mxCell id="PvRw4KbO7DKKGOO_xfBm-72" value="&lt;span&gt;Events + Metrics&lt;/span&gt;" style="text;html=1;resizable=0;points=[];autosize=1;align=left;verticalAlign=top;spacingTop=-4;fontSize=14;fontStyle=1" vertex="1" parent="1">
          <mxGeometry x="70" y="780" width="130" height="20" as="geometry" />
        </mxCell>
        <mxCell id="PvRw4KbO7DKKGOO_xfBm-73" value="&lt;span&gt;Events + Metrics&lt;/span&gt;" style="text;html=1;resizable=0;points=[];autosize=1;align=left;verticalAlign=top;spacingTop=-4;fontSize=14;fontStyle=1" vertex="1" parent="1">
          <mxGeometry x="655" y="680" width="130" height="20" as="geometry" />
        </mxCell>
        <mxCell id="PvRw4KbO7DKKGOO_xfBm-74" value="&lt;span&gt;Events + Metrics&lt;/span&gt;" style="text;html=1;resizable=0;points=[];autosize=1;align=left;verticalAlign=top;spacingTop=-4;fontSize=14;fontStyle=1" vertex="1" parent="1">
          <mxGeometry x="670" y="760" width="130" height="20" as="geometry" />
        </mxCell>
        <mxCell id="PvRw4KbO7DKKGOO_xfBm-75" value="&lt;span&gt;Events + Metrics&lt;/span&gt;" style="text;html=1;resizable=0;points=[];autosize=1;align=left;verticalAlign=top;spacingTop=-4;fontSize=14;fontStyle=1" vertex="1" parent="1">
          <mxGeometry x="280" y="760" width="130" height="20" as="geometry" />
        </mxCell>
        <mxCell id="PvRw4KbO7DKKGOO_xfBm-76" value="&lt;span&gt;Metadata on request&lt;/span&gt;" style="text;html=1;resizable=0;points=[];autosize=1;align=left;verticalAlign=top;spacingTop=-4;fontSize=14;fontStyle=1" vertex="1" parent="1">
          <mxGeometry x="340" y="570" width="160" height="20" as="geometry" />
        </mxCell>
        <mxCell id="PvRw4KbO7DKKGOO_xfBm-77" value="Failed data not mailed" style="text;html=1;resizable=0;points=[];autosize=1;align=left;verticalAlign=top;spacingTop=-4;fontSize=14;fontStyle=1" vertex="1" parent="1">
          <mxGeometry x="695" y="570" width="170" height="20" as="geometry" />
        </mxCell>
        <mxCell id="PvRw4KbO7DKKGOO_xfBm-78" value="&lt;span&gt;Sucess&lt;br&gt;Mmessage&lt;/span&gt;" style="text;html=1;resizable=0;points=[];autosize=1;align=left;verticalAlign=top;spacingTop=-4;fontSize=14;fontStyle=1" vertex="1" parent="1">
          <mxGeometry x="937" y="307" width="100" height="40" as="geometry" />
        </mxCell>
        <mxCell id="PvRw4KbO7DKKGOO_xfBm-79" value="&lt;span&gt;Message&lt;/span&gt;" style="text;html=1;resizable=0;points=[];autosize=1;align=left;verticalAlign=top;spacingTop=-4;fontSize=14;fontStyle=1" vertex="1" parent="1">
          <mxGeometry x="420" y="386" width="80" height="20" as="geometry" />
        </mxCell>
        <mxCell id="PvRw4KbO7DKKGOO_xfBm-80" value="&lt;span&gt;Message&lt;br&gt;Success&lt;br&gt;&lt;/span&gt;" style="text;html=1;resizable=0;points=[];autosize=1;align=left;verticalAlign=top;spacingTop=-4;fontSize=14;fontStyle=1" vertex="1" parent="1">
          <mxGeometry x="615" y="372.5" width="80" height="40" as="geometry" />
        </mxCell>
        <mxCell id="PvRw4KbO7DKKGOO_xfBm-81" value="&lt;span&gt;Message&lt;br&gt;Fail&lt;br&gt;&lt;/span&gt;" style="text;html=1;resizable=0;points=[];autosize=1;align=left;verticalAlign=top;spacingTop=-4;fontSize=14;fontStyle=1" vertex="1" parent="1">
          <mxGeometry x="616" y="416.5" width="80" height="40" as="geometry" />
        </mxCell>
        <mxCell id="PvRw4KbO7DKKGOO_xfBm-82" value="&lt;span style=&quot;color: rgb(0, 0, 0); font-family: Helvetica; font-size: 14px; font-style: normal; font-variant-ligatures: normal; font-variant-caps: normal; font-weight: 700; letter-spacing: normal; orphans: 2; text-align: left; text-indent: 0px; text-transform: none; widows: 2; word-spacing: 0px; -webkit-text-stroke-width: 0px; background-color: rgb(251, 251, 251); text-decoration-thickness: initial; text-decoration-style: initial; text-decoration-color: initial; float: none; display: inline !important;&quot;&gt;Events&lt;/span&gt;" style="text;whiteSpace=wrap;html=1;" vertex="1" parent="1">
          <mxGeometry x="726.5" y="844" width="140" height="40" as="geometry" />
        </mxCell>
      </root>
    </mxGraphModel>
  </diagram>
</mxfile>
